<?xml version="1.0" encoding="UTF-8"?><svg id="Layer_2" xmlns="http://www.w3.org/2000/svg" viewBox="0 0 139.52 136.19"><defs><style>.cls-1{fill:#00a24b;}</style></defs><g id="Layer_1-2"><path class="cls-1" d="M69.38,120.02l15.81-14.51,7.68-7.8,15.4.02c-9.61,11.94-20.3,21.8-31.46,31.87l-7.46,6.59-10.53-9.4c-8.29-7.41-16.1-15.01-23.53-23.33-8.77-9.82-16.8-21.02-22.44-33.14h14.8s4.28,7.33,4.28,7.33h75.34s2.38-7.33,2.38-7.33h16.35c-3.51,7.26-7.6,13.97-12.23,20.39H41.24c4.41,5.51,8.8,10.56,13.77,15.38l14.37,13.94Z"/><path class="cls-1" d="M90.65,52.39l-.03,12.2c-4.51.2-8.94.18-13.59.12V13.17c4.81-.41,9.16-1.23,13.76-2.34v28.17s5.87-.02,5.87-.02V8.58c5.17-1.89,9.36-4.67,12.97-8.58,4.42,3.43,8.66,6.54,13.28,9.5,5.31,3.13,10.67,5.47,16.61,7.38l-1.6,13.78c-5.98-1.57-11.39-3.74-16.87-6.47-3.99-2.28-7.53-4.71-11.46-7.37v21.47s26.91.01,26.91.01c-1.06,4.93-2.18,9.52-3.61,14.09h-42.24Z"/><path class="cls-1" d="M13.66,30.31c1.89,8.77,4,17.52,7.49,25.83l3.55,8.45-14.36.2C4.87,51.79,1.79,38.5,0,24.28,13.12,18.81,22.04,10.87,31.92.29c8.36,8.76,21.65,12.02,33.38,12.96v51.47s-13.71.04-13.71.04l-.02-41.95c-6.07-1.35-11.69-3.29-17.2-5.99l-1.73-.27c-5.56,5.55-11.56,10.04-18.98,13.77Z"/></g></svg>