<?xml version="1.0" encoding="UTF-8"?><svg id="Layer_2" xmlns="http://www.w3.org/2000/svg" viewBox="0 0 162.65 163.95"><defs><style>.cls-1{fill:#0cf;}</style></defs><g id="Layer_1-2"><path class="cls-1" d="M162.65,79.12v3l-.14,3-.05,1.14c-.33,7.43-1.7,14.76-3.91,21.89-5.9,19.1-18.13,35.07-35.57,44.99-10.35,5.89-21.76,9.35-33.48,10.82l-.13-.95-.03-56.37,16.09-.05c.05.3.11.43.36.54l-.63,35.45.21.07c23.01-9.02,36.06-28.36,40.74-52.07h-4.6s-52.01-.09-52.01-.09c-.05-.39-.15-.7-.15-1.08l.3-89.4c9.38.46,18.5,3.42,26.77,7.6,13.91,7.12,25.67,17.91,33.94,31.17,3.6,5.79,6.51,11.88,8.67,18.51l-17.19-.19c-1.58-3.38-3.24-6.63-5.09-9.83-1.51-2.57-3.07-4.99-4.87-7.36-3.24-4.3-7.07-8.01-11.47-11.13-2.41-1.72-4.85-3.22-7.39-4.73l-7.75-4.38.08,52.8,56.67.68c.1.28.21.46.39.67l.1,2.15c.05,1.08-.07,2.15.14,3.16Z"/><path class="cls-1" d="M40.41,152.88c-8.45-4.96-15.99-11.09-22.32-18.63-6.74-8.02-11.73-17.32-14.7-27.38C.92,98.5-.21,89.77.03,81.02c.4-14.82,4.54-29.36,12-42.15,6.76-11.59,16.44-21.71,28.32-28.02l.07.53h.3s-.02,19.2-.02,19.2c-5.33,4.13-9.82,9.2-13.38,14.94-2.58,4.14-4.63,8.52-6.32,13.1-1.71,4.67-3,9.39-4,14.28l40.45-.11-.58-69.4c5.14-1.85,10.46-2.96,15.9-3.36.05.26.14.42.38.61l.36,163.28c-5.61-.54-10.88-1.76-16.28-3.33-.07-.32-.19-.64-.19-1v-69.11s-40.06.17-40.06.17c.58,3.31,1.28,6.48,2.22,9.68,1.68,5.75,4.19,11.11,7.55,16.07,1.1,2.97,13.74,16.16,13.55,15.88l.45.65v10.79s.01,9.04.01,9.04c0,.09-.08.27-.12.25-.05-.03-.14-.07-.23-.12Z"/></g></svg>