<?xml version="1.0" encoding="UTF-8"?><svg id="Layer_2" xmlns="http://www.w3.org/2000/svg" viewBox="0 0 162.64 163.95"><defs><style>.cls-1{fill:#ef1f24;}.cls-2{fill:#00a24b;}</style></defs><g id="Layer_1-2"><path class="cls-1" d="M73.16.65c-.24-.19-.33-.35-.38-.61-5.44.4-10.76,1.5-15.9,3.36l.58,69.39h-.42v17.7h.01v51.51c-8.36-3.75-14.99-8.41-20.23-13.38-.02-.01-.03-.03-.04-.04-2.6-2.8-6.04-6.61-8.16-9.34-.61-.84-1.19-1.68-1.73-2.52t-.01-.02c-.05-.11-.1-.21-.13-.3-.69-1.02-1.35-2.06-1.96-3.12-.03-.04-.06-.09-.08-.14-.66-1.16-1.26-2.3-1.81-3.42-.72-1.46-1.35-2.87-1.9-4.23-.13-.31-.25-.62-.37-.92-.53-1.39-1-2.8-1.42-4.24-.95-3.19-1.65-6.37-2.23-9.68v.1c.04.29.14,1.18.39,2.54l.36,2.44c-1.95-8.64-1.62-16.64-.65-22.83h-.08c.12-.57.24-1.15.37-1.72,0-.04.01-.07.02-.11.81-3.63,1.79-7.18,2.99-10.69.02-.05.03-.07.03-.07.19-.57.39-1.13.59-1.69,1.69-4.57,3.74-8.96,6.32-13.1,3.56-5.74,8.06-10.81,13.38-14.93l.02-19.22h-.3s-.07-.52-.07-.52c-11.88,6.31-21.56,16.43-28.32,28.02C4.56,51.66.43,66.2.03,81.02c-.24,8.75.89,17.48,3.36,25.85,2.97,10.07,7.96,19.36,14.7,27.39,3.11,3.7,6.52,7.08,10.19,10.13,1.28,1.06,2.56,2.05,3.83,2.99,2.66,1.98,5.41,3.82,8.3,5.51.1.05.18.09.23.12t.02-.01c9.16,5.34,16.38,7.6,16.38,7.6v-1c0,.37.12.69.19,1,5.4,1.58,10.67,2.8,16.28,3.33l-.35-163.28Z"/><path class="cls-2" d="M162.64,79.12v3l-.14,3-.05,1.14c-.33,7.43-1.7,14.76-3.91,21.89-5.9,19.1-18.13,35.07-35.57,44.99-10.35,5.89-21.76,9.35-33.48,10.82l-.13-.95-.03-56.37,16.09-.05c.05.3.11.43.36.54l-.63,35.45.21.07c23.01-9.02,36.06-28.36,40.74-52.07h-4.6s-52.01-.09-52.01-.09c-.05-.39-.15-.7-.15-1.08l.3-89.4c9.38.46,18.5,3.42,26.77,7.6,13.91,7.12,25.67,17.91,33.94,31.17,3.6,5.79,6.51,11.88,8.67,18.51l-17.19-.19c-1.58-3.38-3.24-6.63-5.09-9.83-1.51-2.57-3.07-4.99-4.87-7.36-3.24-4.3-7.07-8.01-11.47-11.13-2.41-1.72-4.85-3.22-7.39-4.73l-7.75-4.38.08,52.8,56.67.68c.1.28.21.46.39.67l.1,2.15c.05,1.08-.07,2.15.14,3.16Z"/></g></svg>