<?xml version="1.0" encoding="UTF-8"?>
<!DOCTYPE svg PUBLIC "-//W3C//DTD SVG 1.1//EN" "http://www.w3.org/Graphics/SVG/1.1/DTD/svg11.dtd">
<!-- Creator: CorelDRAW -->
<svg xmlns="http://www.w3.org/2000/svg" xml:space="preserve" width="187.696mm" height="130.063mm" version="1.1" style="shape-rendering:geometricPrecision; text-rendering:geometricPrecision; image-rendering:optimizeQuality; fill-rule:evenodd; clip-rule:evenodd"
viewBox="0 0 17867.99 12381.56"
 xmlns:xlink="http://www.w3.org/1999/xlink"
 xmlns:xodm="http://www.corel.com/coreldraw/odm/2003">
 <defs>
  <style type="text/css">
   <![CDATA[
    .fil0 {fill:#373535}
    .fil1 {fill:#44448A}
    .fil2 {fill:#EC3539}
    .fil3 {fill:#373535;fill-rule:nonzero}
   ]]>
  </style>
 </defs>
 <g id="Layer_x0020_1">
  <metadata id="CorelCorpID_0Corel-Layer"/>
  <g id="_105553138013280">
   <path class="fil0" d="M3360.9 5145.09c523.06,4230.66 4041.43,5080.32 5666.16,5125.66 1597.85,44.44 4870.5,-987.04 5523.74,-5074.39 0,0 1868.06,950.05 1868.06,950.05 -624.39,3501.76 -3804.29,6235.14 -7399.83,6235.14 -3564.7,0 -6982.68,-2553.49 -7569.9,-6258.54 0,0 1911.77,-977.93 1911.77,-977.93zm-44.58 90.51c400.4,3996.49 3874.37,5090.24 5710.96,5117.7 1836.56,27.46 5016.99,-1096.37 5574.34,-5051.07 622.65,316.68 1128.93,564.52 1751.62,881.2 -904.09,4099.71 -4492.95,6117.14 -7334.39,6117.14 -2841.44,0 -6683.25,-1923.03 -7511.74,-6146.89 637.26,-325.94 1171.95,-592.09 1809.2,-918.08z"/>
   <path class="fil1" d="M7638.83 90c285,-30.02 570,-59.99 855,-90 0,3162.12 0,6324.2 0,9486.32 -285,-48.5 -570,-97.01 -855,-145.48 0,-1382.21 0,-2764.38 0,-4146.58 -862.53,0 -1725.05,0 -2587.58,0 87.78,1251.01 892.91,2285.98 1689.34,2767.83 0,307.86 0,615.67 0,923.49 -2837.52,-1130.17 -4002.27,-6151.25 -27.18,-8349.74 0,307.82 0,615.64 0,923.49 -834.67,625.38 -1655.58,1844.48 -1662.16,2811.42 862.53,0 1725.05,0 2587.58,0 0,-1393.57 0,-2787.19 0,-4180.76z"/>
   <path class="fil2" d="M9397.16 5173.77c0,-1724.61 0,-3449.19 0,-5173.77 2365.8,270.46 3710.54,1981.49 4150.43,3432.8 -286.52,0 -573.09,0 -859.62,0 -723.69,-1516.13 -1567.15,-2030 -2435.81,-2373.72 0,1085.03 0,2170.04 0,3255.07 1148.98,0 2297.95,0 3446.94,0 227.22,3074.4 -2042.21,4895.59 -4301.95,5172.17 0,-1136.51 0,-2273.04 0,-3409.55 285,0 570,0 855.01,0 0,739.83 0,1479.65 0,2219.48 1037.28,-224.8 2259.19,-1255.91 2587.32,-3122.48 -1147.46,0 -2294.91,0 -3442.33,0z"/>
   <path class="fil0" d="M15722.01 3338.62c205.32,433.03 410.68,866.01 616,1299.03 509.99,-156.12 1019.97,-312.28 1529.98,-468.41 -645.07,1080.78 -1002.81,2130.24 -1142.26,3510.84 -103.62,-492.6 -229.52,-898.24 -334.3,-1388.45 -3.27,-15.3 -3.06,-78.48 -6.32,-93.84 -505.29,-256.99 -990.71,-555.73 -1496.04,-812.71 122.52,-668.83 328.17,-1401.72 832.95,-2046.46zm-13.58 196.93c205.32,433.02 380.7,805.04 586.02,1238.07 0,0 1339.55,-403.2 1339.55,-403.2 -397.82,551 -908.27,1875.11 -958.7,2596.47 0,0 -256.44,-820.48 -256.44,-820.48 -505.33,-257.03 -921.25,-468.52 -1426.57,-725.55 121.72,-637.11 293.1,-1317.42 716.14,-1885.31zm696.62 2620.53c106.9,508.02 213.79,1016.03 320.68,1524.01 -203,-140.24 -405.99,-280.5 -608.98,-420.74 108.64,-339.5 223.38,-701.93 288.3,-1103.27zm0 0c106.9,508.02 184.1,878.22 291.04,1386.23 0,0 -548.02,-381.14 -548.02,-381.14 108.64,-339.5 192.06,-603.76 256.98,-1005.1z"/>
   <path class="fil0" d="M2145.97 3315.22c-205.32,433.03 -410.64,866.05 -616,1299.04 -509.98,-156.13 -1019.96,-312.29 -1529.97,-468.42 645.06,1080.78 1002.84,2130.24 1142.25,3510.88 103.66,-492.64 229.52,-898.28 334.31,-1388.49 3.27,-15.3 3.08,-78.44 6.32,-93.84 505.32,-256.99 990.71,-555.73 1496.07,-812.71 -122.56,-668.83 -328.2,-1401.72 -832.99,-2046.46zm13.63 196.93c-205.36,433.02 -380.71,805.04 -586.07,1238.07 0,0 -1339.55,-403.2 -1339.55,-403.2 397.82,551 908.27,1875.11 958.71,2596.47 0,0 256.44,-820.48 256.44,-820.48 505.33,-257.02 921.24,-468.52 1426.57,-725.55 -121.72,-637.11 -293.07,-1317.42 -716.1,-1885.31zm-696.63 2620.53c-106.92,508.02 -213.82,1016.03 -320.72,1524.05 203,-140.28 405.99,-280.53 608.99,-420.78 -108.64,-339.5 -223.38,-701.93 -288.27,-1103.27zm0 0c-106.92,508.02 -184.14,878.22 -291.06,1386.24 0,0 548.02,-381.15 548.02,-381.15 -108.64,-339.5 -192.06,-603.76 -256.95,-1005.1z"/>
   <polygon class="fil2" points="3148.2,6390.54 2896.74,6714.24 3128.14,7052.47 2742.58,6913.28 2492.45,7237.81 2505.6,6828.26 2119.67,6690.58 2513.27,6576.64 2524.9,6166.88 2754.92,6506.04 "/>
   <polygon class="fil1" points="3668.1,7601.37 3500.16,7975.31 3804.9,8249.34 3397.38,8205.12 3230.94,8579.54 3147.04,8178.49 2739.48,8135.79 3095.04,7932.15 3009.58,7531.21 3313.23,7806.47 "/>
   <polygon class="fil2" points="14736.42,6413.44 14987.89,6737.09 14756.48,7075.36 15142.05,6936.17 15392.21,7260.7 15379.03,6851.14 15764.95,6713.44 15371.39,6599.5 15359.73,6189.72 15129.7,6528.9 "/>
   <polygon class="fil1" points="14199.92,7624.25 14367.82,7998.16 14063.09,8272.19 14470.64,8228.01 14637.09,8602.43 14720.98,8201.34 15128.5,8158.69 14772.98,7955 14858.43,7554.09 14554.8,7829.35 "/>
   <g>
    <path class="fil3" d="M3971.05 9191.54c-13.26,-12.2 -28.82,-18.1 -46.69,-17.58 -17.84,0.76 -33.13,7.66 -45.88,21.18 -12.24,13 -17.58,28.82 -17.34,46.66 0.76,18.13 7.63,33.17 20.9,45.41 13.26,12.5 28.82,18.1 46.68,17.59 17.84,-1.02 33.14,-7.67 45.38,-20.68 12.25,-13.26 18.13,-29.06 17.59,-46.66 -0.26,-18.09 -7.38,-33.17 -20.64,-45.92zm829.86 82.4c23.72,5.85 40.3,3.56 49.74,-6.9 18.86,-21.4 19.37,-47.16 1.78,-77.02 -2.03,-3.56 -6.36,-6.1 -13,-8.9 -21.4,-7.92 -39.78,-11.48 -55.34,-11.23 -9.7,0.26 -28.3,0.26 -55.84,-0.25 -55.59,-1.02 -102.28,10.21 -140.8,33.64 -5.08,2.28 -10.72,6.9 -17.08,14.02 -44.87,50.5 -25.25,112.74 58.14,187.19 24.48,21.94 44.9,36.98 60.2,44.9 21.4,14.79 41.82,11.48 61.19,-10.21 20.92,-23.73 16.35,-48.98 -13.77,-75.76 -5.08,-4.58 -10.94,-8.9 -18.1,-13 -14.28,-4.33 -33.14,-18.35 -56.6,-42.08 -11.22,-10.98 -15.04,-16.82 -10.98,-18.35 -0.25,-1.78 0,-3.56 1.53,-5.12 10.21,-11.44 35.2,-17.58 75.5,-18.34 12.5,-0.51 36.98,2.28 73.43,7.41zm-371.84 335.11c-18.34,20.64 -46.14,22.16 -82.88,5.08 -20.12,-9.44 -32.88,-19.62 -39.53,-30.34 -3.31,-11.48 -2.55,-20.16 2.8,-26.02 8.68,-13.26 30.37,-16.31 64.78,-9.19 10.72,2.04 26.01,10.21 46.68,23.98 15.04,13.52 17.58,25.76 8.14,36.48zm-207.58 -2.04c-58.42,-10.21 -123.46,-23.72 -195.11,-40.8 -28.31,-6.65 -50.76,-21.7 -68.35,-45.16 -5.85,-7.88 -11.48,-14.28 -16.31,-18.6 -15.56,-13.77 -30.38,-11.23 -44.15,7.12 -10.68,14.28 -17.07,29.61 -19.11,45.92 -5.85,22.7 -3.3,39.02 7.66,48.68 2.29,2.08 4.32,3.6 6.1,4.87 51.02,30.08 172.66,59.4 364.94,88.72 46.94,7.16 94.14,10.72 142.83,11.48 64.02,0.26 107.36,-9.41 130.08,-29.83 26.26,-23.48 26.77,-58.14 1.52,-103.81 -12.76,-23.68 -26.27,-41.82 -40.8,-54.57 -60.72,-54.32 -123.94,-75.21 -190.25,-63 -38,6.64 -64.02,17.62 -78.55,31.9 -30.63,30.08 -30.88,69.1 -0.51,117.06zm1057.85 4.07c24.24,3.3 40.81,-0.77 48.73,-11.99 16.56,-23.48 14.28,-49.24 -6.65,-76.78 -2.28,-3.3 -6.61,-5.59 -13.77,-7.37 -22.17,-5.64 -40.81,-7.16 -56.1,-5.38 -9.7,1.27 -28.05,3.6 -55.59,5.88 -55.34,4.84 -100.5,21.4 -136.44,48.68 -4.86,2.84 -9.7,8.18 -15.29,15.84 -39.28,55.09 -13.01,115 78,179.78 26.78,19.15 48.72,31.9 64.78,38.01 22.96,12.5 42.88,6.9 59.7,-16.57 18.34,-25.76 10.98,-50.5 -21.94,-73.98 -5.34,-3.81 -11.99,-7.37 -19.37,-10.97 -14.78,-2.8 -34.95,-14.54 -60.96,-35.42 -12.24,-9.7 -16.56,-15.3 -12.76,-17.12 -0.5,-2.04 -0.25,-3.56 0.77,-5.34 9.19,-12.76 33.17,-21.44 73.21,-26.52 12.5,-1.78 37.24,-1.53 73.68,-0.76zm-435.56 409.84c-148.2,-5.64 -280.82,-16.06 -397.09,-30.88l-52.02 -6.87c-0.76,-0.25 -1.78,-0.25 -2.04,-0.25l0.26 -0.26 -0.51 -0.51c-0.76,-0.25 -2.58,-0.5 -4.86,-1.27 -16.82,-3.06 -33.14,-10.46 -48.69,-21.7 -5.12,-3.56 -12.24,-9.44 -20.92,-17.58 -9.2,-7.92 -16.06,-14.02 -21.44,-17.62 -13.52,-9.92 -26.02,-6.86 -37.2,8.68 -10.98,15.56 -18.13,35.46 -21.44,58.68 -3.3,27.28 1.78,45.89 15.8,55.84 5.12,3.56 10.98,5.85 17.59,6.87 37.49,5.12 68.63,8.68 93.88,10.97 41.31,3.82 126.22,10.98 253.5,22.2 108.9,9.41 237.4,18.35 386.37,27.04l39.28 1.52c7.63,-1.02 15.8,-8.18 24.96,-20.92 10.97,-15.56 10.46,-29.07 -1.78,-41.06 -15.04,-7.38 -57.63,-30.84 -128.26,-70.38 6.36,0 20.38,-0.5 41.31,-1.02 8.4,0.26 19.62,-2.8 33.14,-8.42 12.5,-14.28 14.79,-31.87 7.42,-51.78 -4.07,-11.2 -8.18,-19.12 -12.76,-23.69 -16.06,-11.48 -32.66,-14.02 -48.98,-7.41 -28.56,12.24 -78.56,11.22 -149.94,-3.06l-54.83 -20.92c-30.34,-11.48 -52.54,-7.63 -66.56,11.99 -16.32,22.96 -14.28,42.33 6.86,57.38 8.43,6.14 24.49,16.1 48.73,30.88 17.33,8.9 50.76,26.52 100.24,53.56zm962.22 -186.18c-115.03,8.64 -227.74,11.74 -337.42,8.64 -26.52,-6.61 -44.88,0 -55.59,20.42 -1.78,3.31 -3.56,16.83 -5.08,40.04 -0.51,8.69 4.32,15.56 14.54,20.93 5.85,3.05 12.5,4.83 19.62,5.08 11.22,2.8 35.46,3.82 72.7,3.31l116.3 -2.29c66.06,-1.28 126.74,-4.06 181.56,-8.42 13.77,-1.28 23.48,-7.38 29.1,-18.1 5.6,-10.72 7.38,-22.96 5.09,-36.99 -2.55,-13.77 -9.2,-23.72 -19.41,-29.06 -5.85,-3.05 -13,-4.06 -21.4,-3.56zm-300.44 369.8c-105.84,-14.02 -167.28,-4.61 -184.14,27.8 -9.41,17.84 -7.63,37.75 5.38,59.16 16.32,26.52 24.74,44.1 25.26,53.3 -9.7,18.64 -33.18,22.7 -70.67,13 -8.9,-0.76 -32.12,-7.88 -68.08,-21.14 -14.28,-5.12 -30.09,-12.24 -47.93,-21.7 -8.17,-4.32 -20.67,-15.04 -36.98,-32.15 -16.06,-17.08 -26.52,-26.27 -30.34,-27.54 -10.98,-3.82 -20.92,2.83 -29.61,19.91 -17.34,32.88 -19.88,56.86 -7.63,71.65 4.32,8.94 32.88,25.76 86.18,50.76 32.16,15.55 73.72,30.84 125.24,45.92 28.31,8.9 57.38,11.19 86.44,6.86 32.66,-4.32 58.94,-16.56 77.79,-36.22 5.88,-5.85 10.72,-14.28 14.78,-25.5 7.67,-20.64 7.92,-40.04 1.02,-57.88 -9.16,-23.22 -12.76,-36.48 -11.48,-38.77 0.76,-1.02 2.08,-1.78 3.34,-2.54 0,-1.02 0.26,-1.78 0.51,-2.04 1.52,-3.05 9.92,-3.56 26.01,-1.02 30.85,3.82 53.81,6.62 69.36,8.65l44.88 5.12c13.77,0 23.72,-6.4 30.38,-18.9 4.83,-9.66 7.38,-20.12 6.1,-32.12 -1.02,-13 -6.4,-22.2 -15.56,-27.03 -2.54,-1.28 -4.86,-2.29 -7.15,-2.54 -3.31,-2.04 -7.89,-3.86 -15.05,-5.89 -14.78,-1.27 -40.8,-4.58 -78.04,-9.16zm691.39 -60.46c3.3,-8.42 13.26,-16.56 28.82,-24.48 15.58,-7.38 35.2,-11.48 59.18,-12.5 11.23,-2.28 28.56,-1.78 52.28,2.04 37.24,13.26 51.02,31.14 41.57,53.56 -1.78,4.61 -4.84,8.94 -8.43,13 -25,16.6 -62.71,24.74 -112.2,24.48 -7.66,-2.79 -15.04,-5.59 -21.69,-8.39l-17.59 -7.16c-13.77,-10.46 -21.69,-20.64 -23.72,-30.34 -0.26,-3.56 0.26,-6.9 1.78,-10.21zm-16.56 -103.55c-43.6,19.66 -72.16,45.67 -85.42,77.79 -7.92,19.15 -11.23,41.57 -9.96,67.08 6.36,34.96 32.62,63 78.04,84.15 100.46,32.4 184.4,28.08 251.98,-13.01 27.28,-16.56 48.18,-42.08 62.46,-76.74 6.64,-15.55 10.46,-30.62 11.99,-44.4 -3.81,-48.18 -26.52,-81.35 -68.08,-99.44 -78.56,-34.44 -159.14,-33.18 -241,4.58zm-136.94 527.42c40.54,17.58 68.85,29.58 84.65,35.97 -7.92,35.68 8.18,60.67 48.22,75.21 19.88,7.66 44.36,11.22 72.67,11.48 58.68,0 110.42,-16.56 155.32,-49.48 16.06,-11.44 22.7,-23.94 20.9,-37.2 -4.84,-26.53 -12.5,-42.37 -23.69,-47.46 -7.66,-3.56 -23.72,-2.28 -47.7,4.58 -62.24,27.28 -104.06,35.97 -124.7,25.76 -5.12,-2.8 -7.16,-6.62 -5.64,-11.48 0.76,-2.29 7.16,-8.14 19.66,-17.58 12.24,-9.45 20.38,-19.88 23.18,-31.36 0.8,-13.52 -3.05,-26.27 -11.96,-37.24 -2.32,-3.31 -6.64,-6.36 -13.26,-8.94 -4.86,-2.04 -10.97,-4.07 -18.13,-5.6 -28.3,6.1 -48.44,10.98 -59.4,14.78 -36.23,6.91 -57.16,7.67 -63.01,2.55 10.21,-30.6 0.26,-52.54 -30.08,-65.04 -19.14,-7.89 -42.84,-8.4 -70.16,-1.53 -29.83,6.9 -48.18,19.66 -54.06,38.52 -5.34,15.04 -3.82,29.06 4.1,41.82 -45.92,20.42 -103.8,35.97 -173.92,47.46 -47.96,7.63 -85.97,10.97 -114.02,9.7 -4.32,0 -15.8,-4.87 -34.96,-14.57 -19.88,-9.92 -29.32,-14.78 -27.8,-14.02 -4.06,-2.28 -8.14,-4.07 -11.99,-4.84 -3.56,-1.27 -6.36,-2.28 -6.86,-2.54 -17.84,-5.38 -30.34,0.26 -37.25,16.82 -7.63,18.6 -9.44,40.04 -4.83,64.28 4.83,27.54 16.82,45.64 35.94,53.56 3.34,1.27 6.14,2.04 8.68,2.54 18.09,4.32 61.22,1.28 129.56,-8.94 60.17,-8.64 111.44,-19.62 153.76,-32.12 102.28,-30.34 160.96,-48.72 176.77,-55.08zm505.47 684.24c-110.45,33.42 -219.6,60.46 -327.47,81.36 -27.54,-0.77 -44.11,9.7 -50,31.64 -1.02,3.82 0,17.34 3.6,40.8 1.27,8.43 7.37,14.02 18.6,17.08 6.36,1.78 13.26,1.78 20.42,0.5 11.95,0.26 35.93,-3.81 71.4,-12.5l182.61 -43.85c55.08,-13.52 90.26,-23.48 105.34,-30.6 15.3,-9.96 23.94,-18.13 25.47,-23.98 3.35,-11.99 2.08,-24.24 -3.3,-37.5 -5.6,-12.75 -14.02,-20.92 -25.26,-23.98 -6.35,-1.78 -13.51,-1.52 -21.4,1.02zm169.83 -551.62c-25.98,-22.2 -45.13,-36.74 -58.14,-43.6 -6.62,-3.34 -13.77,-6.14 -21.7,-8.18 -40.29,-10.97 -78.26,-7.41 -113.46,10.72 -52.28,26.52 -84.4,60.68 -97.16,102.24 -14.78,49.49 11.74,91.56 79.32,126.77 13,5.08 27.03,9.7 41.56,13.52 74.2,20.16 153,22.2 236.14,5.85 76.26,-14.78 125.5,-36.7 147.18,-65.5 8.9,-11.49 15.04,-24.49 19.12,-39.28 7.12,-26.27 0.5,-51.52 -20.93,-75.25 -18.6,-20.92 -41.56,-35.46 -69.61,-42.84 -42.84,-11.73 -90.29,-6.64 -142.32,15.56zm-84.41 33.39l0.77 13c-3.06,11.99 -8.94,20.16 -17.59,25 -2.28,2.28 -8.94,6.14 -19.65,11.99 -19.37,10.21 -36.19,13.26 -50.73,9.45 -19.91,-5.38 -26.77,-15.81 -20.16,-30.6 8.43,-19.66 32.38,-31.4 72.16,-35.2 11.48,-1.28 20.42,-0.51 26.02,2.28l9.19 4.07zm128.81 39.53c32.88,-9.16 55.34,-12.5 67.07,-9.16 17.34,4.58 23.22,5.85 17.59,4.07 3.81,1.27 4.86,4.83 3.56,9.96 -4.58,17.07 -25.22,29.06 -61.95,35.93 -34.19,6.14 -57.4,7.42 -69.36,4.36 -4.1,-1.27 -7.92,-3.05 -11.74,-4.86 -0.76,-0.76 -1.27,-2.29 -0.76,-4.07 3.3,-12.5 10.18,-21.18 20.64,-26.01l34.96 -10.21zm1358.29 -233.34c23.22,-7.66 36.22,-18.64 38.52,-32.4 4.58,-28.05 -8.94,-50.22 -39.79,-66.06 -3.56,-1.78 -8.68,-1.78 -15.8,-0.5 -22.2,4.86 -39.53,11.73 -52.54,20.16 -8.17,5.34 -23.72,15.3 -47.45,29.58 -47.67,28.81 -80.84,63.51 -100.98,103.8 -3.08,4.58 -5.38,11.48 -6.9,20.9 -10.98,66.56 39.02,108.92 149.18,127.27 32.41,5.09 57.66,7.16 75,5.6 26.02,1.06 41.31,-12.72 46.14,-41.31 5.12,-31.1 -12.5,-50.22 -52.28,-56.61 -6.36,-1.27 -13.77,-1.52 -22.16,-1.52 -14.28,4.06 -37.5,2.54 -70.16,-5.08 -15.3,-3.35 -21.66,-6.4 -19.12,-9.45 -1.28,-1.52 -1.78,-3.3 -1.52,-5.34 2.54,-15.33 20.38,-33.68 54.06,-55.88 10.46,-7.12 32.62,-17.84 65.8,-33.14zm-158.12 408.32c-105.34,19.88 -160.42,47.93 -166.56,83.9 -3.06,19.88 4.62,38.26 23.72,54.58 23.73,20.12 37.24,34.15 40.81,42.84 -3.57,20.67 -24.49,31.9 -62.97,34.44 -8.94,2.04 -33.17,2.54 -71.68,1.02 -14.79,-0.26 -32.12,-2.04 -52.03,-5.38 -9.41,-1.52 -24.23,-7.88 -45.12,-19.12 -20.68,-11.22 -33.42,-16.56 -37.75,-16.56 -11.48,-0.26 -18.85,9.16 -21.94,28.04 -5.85,36.74 -0.76,60.17 15.34,70.38 6.86,7.16 39.28,14.28 97.92,21.18 35.2,4.84 79.57,6.62 133.12,4.84 29.83,-0.5 58.14,-7.66 84.15,-20.64 29.86,-14.57 51.01,-34.19 62.74,-58.68 3.82,-7.38 5.6,-16.82 6.1,-29.06 0.8,-21.7 -5.08,-40.3 -17.08,-55.08 -16.06,-19.15 -23.72,-30.63 -23.21,-33.43 0.5,-1.27 1.56,-2.28 2.32,-3.3 -0.26,-1.02 -0.26,-1.78 0,-2.28 0.5,-3.31 8.39,-6.4 24.45,-9.2 30.38,-5.6 53.05,-10.21 68.64,-13.26l44.11 -9.2c13,-4.32 20.64,-13.26 22.96,-27.28 1.78,-10.68 0.5,-21.4 -4.36,-32.38 -4.84,-12.24 -12.76,-19.11 -23.18,-20.92 -2.84,-0.51 -5.38,-0.51 -7.42,-0.26 -3.82,-0.76 -8.94,-1.02 -16.06,-0.76 -14.53,3.34 -40.3,8.42 -77.02,15.58zm497.55 578.15c-99.96,57.11 -200.97,107.36 -301.68,151.47 -26.78,5.13 -40.55,19.15 -41.57,41.82 0,4.11 4.07,16.86 12.5,38.52 3.31,8.18 10.43,12.5 21.91,13 6.64,0.26 13.26,-1.01 20.16,-3.81 11.74,-2.29 34.16,-11.48 67.08,-28.05l168.3 -82.88c50.75,-25.5 82.66,-42.84 96.17,-52.79 12.76,-13.52 19.12,-22.96 19.37,-29.32 0.5,-12.25 -3.06,-23.98 -11.48,-35.46 -8.14,-11.74 -18.1,-17.59 -29.83,-18.1 -6.64,-0.26 -13.52,1.52 -20.92,5.6zm64.02 109.14c-100.72,56.86 -201.22,107.36 -301.68,151.26 -27.04,5.34 -41.1,19.36 -41.86,42.08 -0.26,4.06 3.85,16.56 12.24,38.76 3.34,7.88 10.98,12.24 21.94,12.76 6.62,0.25 13.52,-1.06 20.13,-3.86 12.24,-2.28 34.19,-11.74 67.1,-27.8l168.04 -83.13c50.76,-25.26 83.14,-43.1 96.4,-53.05 12.76,-13 19.4,-22.7 19.66,-29.06 0.5,-12.24 -3.3,-23.98 -11.22,-35.46 -8.18,-11.74 -18.1,-17.58 -30.09,-18.1 -6.64,-0.26 -13.77,1.52 -20.67,5.6zm64.52 -663.09c-101.77,32.41 -153.26,67.08 -154.82,103.55 -0.76,20.16 9.2,37.24 30.12,51.26 26.02,17.08 41.06,29.58 45.64,37.5 -1.02,20.9 -20.38,34.66 -58.38,41.82 -8.69,3.06 -32.67,6.62 -70.93,9.7 -15.04,1.52 -32.37,1.78 -52.54,1.02 -9.41,-0.51 -24.96,-4.87 -47.16,-13.52 -21.69,-8.68 -35.2,-12.5 -39.28,-11.99 -11.48,1.27 -17.58,11.48 -18.34,30.59 -1.56,36.99 6.36,59.95 23.69,68.09 7.66,6.14 40.8,9.19 99.73,9.19 35.46,0.51 79.83,-3.3 132.62,-11.48 29.58,-4.06 56.86,-14.53 81.36,-30.59 27.8,-18.13 46.14,-40.3 55.08,-65.8 2.8,-7.92 3.3,-17.62 2.28,-29.58 -1.78,-21.7 -9.66,-39.54 -23.47,-52.8 -18.1,-17.12 -27.28,-27.54 -27.04,-30.38 0.26,-1.27 1.06,-2.28 1.82,-3.56 -0.26,-0.76 -0.26,-1.52 -0.26,-2.03 0,-3.31 7.63,-7.42 23.18,-12.25 29.36,-9.44 51.53,-16.56 66.57,-21.43l42.62 -14.54c12.46,-5.85 18.85,-15.8 19.36,-29.83 0.5,-10.97 -1.78,-21.43 -8.18,-31.61 -6.36,-11.48 -15.04,-17.62 -25.5,-17.88 -2.8,-0.26 -5.34,0 -7.38,0.5 -3.82,-0.25 -8.94,0 -16.06,1.28 -14.02,4.86 -39.02,13 -74.74,24.74zm-152.74 -116.01c-1.56,36.69 17.33,56.09 56.6,57.87 15.8,0.51 30.34,-5.34 43.6,-17.33 13.01,-12.5 19.92,-26.27 20.68,-42.36 1.52,-38.99 -17.12,-58.9 -55.88,-60.43 -17.58,-0.76 -32.88,4.84 -45.38,17.08 -12.24,12.5 -18.86,27.54 -19.62,45.17zm192.02 8.13c-1.52,36.74 17.58,56.1 57.12,57.67 16.1,0.76 30.38,-5.38 43.12,-17.37 13.01,-12.5 19.88,-26.26 20.64,-42.32 1.52,-38.77 -17.08,-58.9 -55.08,-60.42 -16.82,-0.8 -32.12,5.08 -44.88,17.84 -13.51,13 -20.16,27.79 -20.92,44.61zm621.27 -207.57c0.25,-9.2 6.1,-20.42 17.84,-33.43 11.73,-12.5 28.56,-23.72 50.5,-33.64 9.44,-6.14 26.02,-11.99 49.48,-17.12 39.28,-1.27 58.64,10.21 58.39,34.45 -0.26,5.08 -1.28,10.21 -3.06,15.29 -17.36,24.75 -49.48,46.15 -95.38,64.02 -8.42,0.26 -16.1,0.26 -23.47,0.26l-18.9 -0.5c-16.82,-4.36 -27.8,-11.23 -33.39,-19.4 -1.52,-3.06 -2.03,-6.36 -2.03,-9.92zm-53.56 -90.29c-33.18,34.16 -50.25,68.86 -50.76,103.55 -0.51,20.64 4.84,42.84 15.3,66.06 18.86,30.33 53.56,46.65 103.8,49.7 105.08,-6.87 181.56,-41.57 229.26,-104.57 19.41,-25.47 29.32,-56.86 30.09,-94.36 0.25,-17.08 -1.28,-32.37 -5.34,-45.63 -20.93,-43.6 -54.32,-66.06 -99.74,-67.58 -85.68,-3.06 -160.16,27.54 -222.62,92.83zm51.01 668.69c-7.41,6.39 -11.22,15.55 -11.48,27.28 -0.25,11.48 6.87,22.2 21.15,32.92 12.5,9.41 25.25,14.28 37.24,14.54 9.44,0.25 16.56,-2.29 21.94,-7.67 28.05,-29.32 55.34,-76.26 82.62,-141.01 18.35,-44.66 28.05,-82.15 28.56,-112.49 0.51,-34.16 -11.74,-58.9 -36.98,-74.22 -16.82,-10.43 -32.38,-14.03 -46.14,-10.18 -9.45,2.54 -36.23,17.58 -79.07,45.38l-163.46 105.58c-15.33,9.7 -44.4,25.76 -87.49,48.47l-26.27 13.77c-1.28,0.26 -4.06,1.28 -8.18,3.06 -9.15,2.54 -19.36,3.3 -31.61,3.06 -5.85,0 -14.54,-0.51 -25.51,-1.28 -11.22,-1.02 -19.62,-1.28 -25.76,-1.52 -19.87,-0.26 -33.9,4.06 -42.07,12.75 -5.09,7.42 -7.92,16.32 -8.18,26.53 -0.5,27.54 9.7,52.28 30.62,74.48 13.01,14.02 25.76,21.14 38.26,21.4 3.82,0 7.63,-0.51 11.2,-1.53 22.7,-7.12 46.68,-17.58 72.44,-31.61l107.37 -58.42c22.45,-12.25 66.06,-40.8 130.32,-85.17 32.12,-22.45 60.68,-41.82 85.68,-58.68 1.02,-0.76 2.04,-1.01 2.8,-1.01 2.07,0 3.08,2.07 3.08,5.37 -0.25,13.01 -9.7,36.99 -27.79,72.42 -19.66,38 -37.25,64.02 -53.31,77.79zm691.91 -775.29c-91.31,70.64 -183.63,135.16 -276.97,193.04 -25.76,8.68 -37.5,24.49 -35.2,47.46 0.25,3.81 6.14,16.06 17.84,36.48 4.36,7.37 11.99,10.42 23.47,9.15 6.65,-0.5 13.01,-2.79 19.4,-6.35 10.69,-4.07 31.61,-16.32 62.21,-37.25l96.17 -65.8c54.32,-37.75 103.52,-73.17 146.65,-107.11 10.93,-8.43 15.8,-18.86 14.53,-31.1 -1.02,-11.99 -6.39,-23.22 -16.09,-33.43 -9.92,-10.46 -20.64,-15.04 -32.12,-13.77 -6.62,0.76 -13.27,3.56 -19.88,8.68zm-184.4 639.62c-34.7,31.86 -71.18,61.74 -108.92,89.02 -20.64,15.04 -50.47,33.9 -90,57.12 -8.94,4.06 -19.92,6.61 -32.16,7.88 -5.6,0.54 -14.78,1.06 -27.04,1.06 -12.24,0 -21.14,0.25 -27.28,1.02 -26.52,2.54 -39.28,14.53 -36.98,35.17 3.08,32.41 14.82,56.64 35.2,73.47 14.54,11.48 27.8,16.31 39.28,13.77 35.97,-7.42 93.6,-40.8 173.68,-99.74 43.09,-31.61 103.8,-80.84 181.59,-146.64 27.54,6.14 52.29,11.48 74.2,15.04 8.68,1.56 26.52,4.36 52.8,8.18 25.76,4.06 45.16,-2.29 57.66,-18.86 9.16,-11.48 11.99,-26.52 8.64,-45.16 -1.78,-9.66 -6.36,-18.86 -13.52,-27.8 -19.87,-13.52 -47.66,-22.7 -83.13,-27.28 21.18,-16.06 67.84,-45.38 140.02,-87.46 18.1,-14.32 26.78,-26.02 25.73,-35.2 -0.26,-3.31 -1.28,-7.67 -2.29,-12.25 -6.86,-25.76 -21.9,-37.24 -44.87,-34.95 -6.65,0.76 -12.25,3.08 -16.83,7.66 -3.85,2.29 -34.19,22.46 -91.3,60.17l-110.46 72.44c-43.85,-10.98 -73.43,-15.56 -88.22,-14.02 -8.68,0.76 -14.78,3.3 -18.64,6.61 -21.65,10.21 -30.84,28.31 -28.3,54.58 1.02,10.46 3.86,20.68 8.94,29.1 2.54,4.84 9.96,10.68 22.2,17.08zm811.77 -748c-81.86,81.35 -165.54,156.56 -250.96,225.7 -24.49,11.99 -34.19,29.06 -29.07,51.52 1.02,3.56 8.14,15.04 22.17,33.9 5.37,6.9 13.26,8.94 24.48,6.4 6.4,-1.56 12.5,-4.62 18.38,-8.94 10.43,-5.38 29.32,-20.16 57.38,-44.62l87.2 -77.28c49.24,-43.9 93.6,-85.2 132.36,-124.22 9.7,-9.92 13.26,-20.9 10.46,-32.88 -2.54,-11.74 -9.19,-22.2 -20.12,-31.11 -10.98,-8.93 -22.2,-12.24 -33.68,-9.7 -6.36,1.53 -12.5,5.34 -18.6,11.23zm-5.12 456.24c-98.94,73.98 -184.14,149.18 -256.3,225.96 -18.86,19.88 -28.56,34.96 -29.58,44.88 -3.31,9.19 -4.36,17.36 -2.54,24.74 2.03,9.7 15.04,23.47 37.96,40.54 25.26,18.64 38,29.32 38.76,32.16 1.82,7.88 -6.1,18.1 -23.68,30.08 -9.2,6.1 -17.12,11.23 -23.72,15.81 -6.14,2.54 -10.21,4.57 -11.48,5.63 -10.98,3.56 -18.1,6.1 -21.19,6.62 -8.9,2.04 -22.41,2.28 -41.31,1.27 -18.86,-1.02 -32.12,-0.76 -40.04,1.02 -19.12,4.36 -23.72,20.93 -13.77,48.98 4.62,12.24 12.76,23.98 24.75,35.46 13.51,13.52 26.26,18.6 37.24,15.04 26.78,-9.19 48.21,-17.36 63.76,-25 53.56,-25.5 91.06,-48.21 112.7,-67.83 31.9,-30.12 45.17,-60.46 39.28,-90.8 -1.52,-7.92 -13,-21.44 -34.95,-41.06 -21.4,-19.4 -32.38,-29.32 -32.38,-29.58 -0.51,-1.82 0,-3.34 1.27,-4.36 22.2,-18.86 45.42,-36.18 69.62,-51.52 47.71,32.41 95.67,43.64 143.59,34.44 55.08,-10.46 96.64,-33.68 125.5,-68.34 22.67,-37.75 29.83,-77.79 21.14,-120.88 -0.26,-1.28 -2.54,-7.42 -6.86,-18.9 -17.62,-30.08 -42.62,-52.02 -74.74,-65.54 -15.3,-6.62 -32.12,-7.88 -50.5,-4.58 -16.06,3.06 -33.65,11.99 -52.54,25.76zm20.16 103.3c19.11,-14.02 33.64,-21.94 42.84,-24.74 20.92,-5.64 33.42,2.54 38,24.48 0.76,9.92 -3.06,19.12 -12.24,28.3 -8.68,8.94 -20.42,15.3 -34.96,19.12 -14.54,3.6 -27.28,5.64 -39.28,4.86 -15.3,-1.52 -23.68,-3.59 -25.22,-7.41 -1.81,-9.7 8.4,-24.49 30.85,-44.62zm1253.22 154.52c-68.08,93.09 -139.48,180.07 -213.46,261.42 -22.2,15.81 -29.06,34.19 -20.67,55.34 1.56,3.82 10.46,13.52 27.03,30.08 6.4,5.89 14.82,6.91 25.5,2.84 6.14,-2.58 11.74,-6.4 16.61,-11.74 9.92,-6.9 26.52,-24.48 49.7,-53.04l119.61 -144.6c35.97,-43.86 57.91,-72.96 66.05,-87.5 6.14,-17.58 8.18,-28.82 5.64,-34.66 -4.36,-11.48 -12.5,-20.68 -24.74,-27.8 -12.25,-7.16 -23.73,-8.68 -34.7,-4.36 -6.1,2.54 -11.74,6.9 -16.57,14.02zm102.79 73.22c-68.6,93.08 -139.52,180.28 -213.21,261.68 -22.45,15.8 -29.32,34.15 -20.92,55.34 1.52,3.81 10.46,13.77 27.04,30.34 6.39,5.85 14.78,6.61 25.25,2.54 6.14,-2.54 11.74,-6.36 16.82,-11.74 10.21,-6.86 26.53,-24.49 49.74,-52.8l119.36 -144.6c35.97,-43.86 58.39,-73.43 66.31,-87.71 6.14,-17.33 8.17,-28.81 5.85,-34.7 -4.58,-11.48 -12.72,-20.38 -24.7,-27.79 -12.24,-7.12 -23.98,-8.69 -34.96,-4.07 -6.1,2.29 -11.74,7.12 -16.56,13.52zm-322.9 -418.53c6.14,-29.83 2.58,-61.44 -10.94,-95.12 -1.52,-4.06 -7.66,-16.31 -17.62,-35.68 -16.06,-31.9 -35.68,-45.16 -59.4,-39.78 -9.45,2.28 -19.41,8.4 -30.6,18.6 -12.5,11.74 -12.76,31.1 0,58.14l26.78 57.66c5.85,23.94 5.08,56.1 -1.82,95.63 -14.78,39.02 -20.9,61.98 -18.1,68.85 5.09,12.76 15.3,21.7 30.6,27.29 15.08,5.34 29.1,5.34 41.6,-0.51 32.62,-15.04 90.76,-74.74 174.94,-178.76 60.17,-74.23 103.77,-137.24 131.35,-189.26 9.41,-18.35 12.46,-31.1 8.9,-39.02 -4.32,-9.67 -12.24,-18.1 -23.72,-25.22 -17.59,-10.98 -30.09,-12.5 -37.21,-5.64 -3.08,3.31 -8.94,8.94 -17.62,18.1 -104.82,152.52 -170.62,241.04 -197.14,264.72z"/>
    <path class="fil3" d="M12146.85 9823.78c-57.38,99.96 -118.3,194.86 -182.58,283.84 -20.42,17.88 -25.26,36.99 -14.28,57.16 1.78,3.56 11.74,12.5 30.08,27.04 6.87,5.08 15.3,5.08 25.51,-0.26 5.85,-3.34 10.97,-7.66 15.29,-13.52 8.69,-7.92 22.97,-27.03 43.6,-58.17l63.77 -97.41c35.97,-55.59 67.83,-107.11 94.86,-154.82 6.9,-11.99 7.42,-23.72 1.52,-34.4 -5.59,-10.46 -14.78,-18.9 -27.79,-24.74 -12.76,-5.89 -24.49,-5.89 -34.67,-0.51 -5.88,3.31 -10.97,8.4 -15.33,15.8zm258.36 480.23c-7.16,26.01 -34.19,74.74 -81.6,146.38 -31.64,48.22 -61.48,89.02 -90.04,122.41 -0.5,0.76 -15.04,17.11 -44.36,48.98 -5.63,6.35 -13,11.73 -22.2,16.56 -5.34,3.06 -14.28,6.64 -26.26,10.98 -11.99,4.06 -20.93,7.66 -26.27,10.72 -22.2,11.73 -27.8,27.79 -17.08,47.92 11.99,22.2 35.68,39.53 70.89,51.78 19.91,2.03 37.5,-5.6 52.54,-23.44 32.62,-38.77 65.29,-79.57 97.15,-121.43 62.24,-81.6 108.68,-149.69 138.76,-204.26 13.52,-24.24 26.27,-52.54 38.77,-84.66 6.36,-17.12 11.22,-35.97 14.54,-57.4 0.25,-7.63 -1.28,-18.35 -5.64,-31.61 -5.08,-17.33 -16.82,-32.38 -34.92,-45.64 -19.91,-13.77 -56.9,-10.72 -110.7,9.67 -49.2,18.89 -81.86,33.17 -97.67,43.12 -63.51,39.78 -91.56,69.87 -85.16,90 1.28,10.72 3.82,20.16 8.14,27.8 6.4,12.24 16.6,21.44 30.62,28.34 7.63,2.28 16.06,1.27 24.97,-3.34 5.88,-3.31 13.51,-8.65 22.45,-16.06 10.98,-9.45 18.13,-15.3 21.7,-17.84l70.38 -48.22c27.03,-14.54 43.09,-17.58 47.96,-8.43 1.52,2.84 2.8,5.38 3.05,7.67zm662.07 187.7c-50.76,103.55 -106.1,201.72 -164.52,294.8 -19.11,19.41 -22.92,38.52 -10.97,57.92 2.32,3.56 12.75,11.74 32.15,25 7.12,4.84 15.56,4.32 25.26,-1.82 5.6,-3.3 10.46,-8.14 14.54,-14.28 8.42,-8.64 21.69,-28.81 39.78,-60.93l92.58 -162.96c27.8,-49.74 44.36,-82.15 49.74,-97.96 3.06,-18.34 3.06,-29.58 -0.26,-35.17 -6.64,-10.21 -16.1,-17.88 -29.36,-22.97 -13.26,-4.86 -25,-4.36 -34.92,2.04 -5.63,3.3 -10.46,8.68 -14.02,16.32zm114.24 54.57c-51.52,103.55 -106.1,201.47 -164.74,294.56 -19.4,19.41 -22.96,38.77 -10.98,58.17 2.04,3.3 12.76,11.74 32.12,25 7.16,4.83 15.59,4.06 25.26,-1.78 5.64,-3.6 10.46,-8.18 14.54,-14.32 8.68,-8.64 21.69,-28.82 39.78,-60.68l92.32 -163.21c27.8,-49.49 44.66,-82.41 50,-97.96 3.05,-18.1 3.05,-29.83 -0.26,-35.18 -6.36,-10.46 -16.06,-17.88 -29.32,-22.96 -13.26,-5.08 -24.74,-4.32 -34.96,1.78 -5.59,3.56 -10.46,9.2 -13.77,16.56zm-259.1 -436.36c-62.5,134.44 -123.46,252.48 -182.1,354l-26.27 45.68c-0.5,0.5 -1.02,1.27 -1.02,1.78l-0.25 -0.51 -0.76 0.51c-0.51,0.5 -1.28,2.03 -2.8,3.81 -9.45,14.28 -22.46,26.53 -39.02,36.74 -5.13,3.06 -13.52,7.38 -24.24,12.24 -10.98,5.34 -19.12,9.41 -24.49,12.76 -14.28,8.9 -16.31,21.66 -6.36,37.96 10.18,16.1 25.51,30.38 45.89,42.37 23.72,13.77 42.84,16.06 57.37,6.86 5.38,-3.3 9.71,-7.63 13.27,-13.52 19.14,-32.37 34.44,-59.66 46.43,-82.12 19.62,-36.73 58.9,-112.19 118.6,-225.19 50.5,-96.91 108.64,-212.19 173.93,-346.08l16.82 -35.47c1.78,-7.63 -1.53,-17.84 -9.7,-31.1 -10.18,-16.31 -22.93,-20.92 -38.48,-14.28 -12.76,10.98 -50.76,41.06 -114.53,91.06 2.29,-6.14 7.38,-18.9 15.05,-38.52 3.3,-7.66 5.08,-19.4 5.08,-33.93 -8.4,-17.08 -23.69,-26.02 -44.88,-26.78 -11.99,-0.51 -20.89,0.25 -27.03,2.58 -16.82,10.42 -25.51,24.7 -25.51,42.32 0,31.1 -20.12,76.74 -60.93,137.2l-40.55 42.58c-22.2,23.48 -27.32,45.42 -14.57,65.8 14.82,23.98 33.68,29.58 55.62,15.8 8.65,-5.34 24.2,-16.06 47.16,-32.88 15.04,-12.75 44.11,-36.73 88.26,-71.68zm224.94 -727.84c-5.88,-7.16 -8.42,-19.4 -8.18,-36.99 0.51,-17.07 5.89,-36.47 16.06,-58.38 3.09,-10.98 11.74,-26.02 26.02,-45.42 28.82,-26.78 51.27,-30.59 66.82,-12.24 3.3,4.1 5.64,8.68 7.66,13.77 3.06,29.87 -7.15,67.08 -30.08,110.71 -6.4,5.6 -11.99,10.68 -17.62,15.56l-14.54 11.99c-15.55,7.63 -28.3,9.66 -38,7.12 -3.05,-1.27 -5.85,-3.3 -8.14,-6.1zm-99.48 -33.18c-2.54,47.71 7.42,84.95 29.58,111.73 13.26,15.8 31.64,29.06 54.86,39.78 34.16,10.42 70.88,0.26 110.92,-30.63 75,-73.94 109.91,-150.2 104.83,-229.26 -2.29,-31.86 -15.04,-61.98 -39.28,-90.8 -10.98,-13.26 -22.2,-23.44 -33.94,-31.1 -44.36,-19.12 -84.4,-14.28 -119.61,14.28 -66.81,53.81 -102.75,125.72 -107.36,216zm476.92 471.58c-1.52,9.92 1.52,19.36 9.2,28.3 7.37,8.65 19.62,12.5 37.5,10.98 15.8,-1.02 28.55,-5.64 37.71,-13.26 7.16,-6.14 10.98,-12.76 11.48,-20.42 1.78,-40.3 -8.14,-93.85 -30.08,-160.67 -15.3,-45.63 -32.62,-80.33 -52.28,-103.55 -21.94,-26.27 -47.42,-36.99 -76.26,-31.86 -19.88,3.05 -33.9,10.46 -41.82,22.45 -5.34,8.4 -15.56,36.96 -29.83,86.19l-54.32 186.93c-5.12,17.34 -16.56,48.47 -34.19,93.85l-10.98 27.54c-0.76,1.02 -2.28,3.86 -4.06,7.92 -5.35,7.88 -12.5,15.04 -21.91,22.96 -4.62,3.82 -11.22,9.16 -20.16,15.81 -8.94,6.61 -15.56,11.73 -20.42,15.8 -15.04,12.75 -22.93,25.25 -23.18,37.24 1.02,8.64 4.58,17.33 10.97,25.25 17.59,21.15 41.57,32.89 71.91,36.19 19.11,2.04 33.39,-1.02 43.09,-8.9 2.8,-2.58 5.38,-5.38 7.42,-8.68 12.5,-20.13 23.72,-43.6 33.9,-71.14l42.88 -114.53c8.9,-23.98 23.18,-73.94 42.58,-149.69 9.66,-38.01 18.6,-71.44 26.52,-100.5 0.26,-1.28 0.76,-2.29 1.27,-2.8 1.78,-1.28 3.56,-0.51 5.6,2.03 8.43,9.96 17.12,34.45 26.52,72.96 10.21,41.82 14.03,72.67 10.98,93.6zm-20.68 192.79c23.73,28.04 50.76,29.83 80.88,4.61 12.21,-10.21 18.86,-24.23 19.88,-42.11 1.52,-17.59 -3.06,-32.63 -13.26,-44.88 -25,-29.83 -52.03,-32.38 -81.6,-7.66 -13.52,11.22 -20.68,25.5 -21.44,43.38 -0.76,17.33 4.1,32.88 15.55,46.66zm71.69 -1196.36c-23.98,113 -52.8,221.89 -86.73,326.46 -14.02,23.22 -12.75,42.84 3.86,58.9 2.8,2.54 15.04,8.18 36.95,16.06 8.18,3.08 16.1,0.26 24.24,-7.88 4.62,-4.87 7.92,-10.72 10.46,-17.58 5.6,-9.96 13.52,-32.92 23.48,-68.64l30.84 -112.2c17.34,-64.02 31.9,-122.92 42.84,-176.48 3.09,-13.77 -0.26,-24.74 -8.9,-33.42 -8.68,-8.14 -19.91,-13.52 -33.94,-15.04 -14.28,-1.53 -25.25,2.03 -33.39,10.46 -4.62,4.83 -7.92,11.22 -9.7,19.36zm245.06 384.85c-42.32,116.04 -72.66,225.7 -91.05,329.26 -4.84,27.03 -4.84,45.12 0,53.81 2.07,9.7 5.88,17.08 11.22,22.2 7.16,6.86 25.26,11.48 54.06,13.26 31.14,1.78 47.96,3.56 50,5.6 5.88,5.64 4.84,18.34 -3.3,38.26 -4.32,9.96 -8.18,18.86 -11.23,26.02 -3.81,5.59 -6.1,9.44 -6.61,11.22 -7.16,8.9 -11.99,15.04 -14.06,17.08 -6.36,6.64 -17.59,14.28 -33.9,23.47 -16.32,9.7 -27.29,17.08 -33.18,22.97 -13.52,14.02 -8.4,30.34 15.34,48.43 10.42,7.92 23.68,13.26 40.04,16.06 18.86,4.11 32.12,1.28 39.28,-7.63 17.84,-22.46 31.1,-41.06 40.04,-55.85 30.84,-50.75 49.7,-90.03 57.11,-118.34 10.21,-42.58 4.84,-75.24 -16.56,-97.44 -5.64,-5.85 -22.7,-10.94 -51.78,-15.3 -28.56,-4.58 -43.12,-6.86 -43.38,-7.12 -1.28,-1.27 -1.78,-2.84 -1.28,-4.36 8.18,-28.04 18.39,-55.08 30.13,-81.1 57.62,1.02 104.02,-15.8 139.23,-49.7 40.3,-38.76 62.5,-81.14 67.58,-126 -1.52,-43.86 -17.58,-81.36 -48.44,-112.71 -0.79,-0.76 -6.14,-4.86 -16.09,-11.99 -31.1,-15.56 -63.99,-20.16 -98.18,-14.02 -16.56,2.8 -31.36,10.93 -44.88,23.68 -11.73,11.48 -21.69,28.34 -30.12,50.25zm73.47 75.75c8.39,-22.45 16.06,-36.98 22.45,-44.36 14.28,-15.84 29.32,-16.1 45.13,0 6.1,7.63 7.92,17.34 5.08,30.08 -2.28,12.25 -8.64,24.24 -18.6,35.43 -10.21,10.72 -19.92,19.4 -30.34,25.25 -13.52,7.16 -21.7,9.96 -25.26,7.67 -6.64,-7.16 -6.14,-25.26 1.53,-54.07z"/>
   </g>
  </g>
 </g>
</svg>
